# xmcd CD database file
#
# Track frame offsets:
#	150
#	11646
#	44924
#	69202
#	89506
#	109368
#	144142
#	161817
#	177326
#	201384
#	222118
#	240405
#	288474
#	324258
#	337327
#	349149
#
# Disc length: 4778 seconds
#
# Revision: 0
# Processed by: cddbd v1.5.1PL2 Copyright (c) Steve Scherf et al.
# Submitted via: Feurio! 1.68 - http://www.feurio.com
#
DISCID=f912a810
DTITLE=Ten Years After - Pure Blues (edit)
DYEAR=1900
DGENRE=Bluesrock
TTITLE0=Alvin Lee and Ten Years After - Don't Want You Woman
TTITLE1=Alvin Lee and Ten Years After - The Bluest Blues
TTITLE2=Alvin Lee and Ten Years After - I Woke Up This Morning
TTITLE3=Alvin Lee and Ten Years After - Real Life Blues
TTITLE4=Alvin Lee and Ten Years After - The Stomp
TTITLE5=Alvin Lee and Ten Years After - Slow Blues In 'C'
TTITLE6=Alvin Lee and Ten Years After - Wake Up Moma
TTITLE7=Alvin Lee and Ten Years After - Talk Don't Bother Me
TTITLE8=Alvin Lee and Ten Years After - Every Blues You've Ever Heard
TTITLE9=Alvin Lee and Ten Years After - I Get All Shook Up
TTITLE10=Alvin Lee and Ten Years After - Lost In Love
TTITLE11=Alvin Lee and Ten Years After - Help Me
TTITLE12=Alvin Lee and Ten Years After - Outside My Window
TTITLE13=Alvin Lee and Ten Years After - Bonus Track 1
TTITLE14=Alvin Lee and Ten Years After - Bonus Track 2
TTITLE15=Alvin Lee and Ten Years After - Bonus Track 3
EXTD=
EXTT0=
EXTT1=
EXTT2=
EXTT3=
EXTT4=
EXTT5=
EXTT6=
EXTT7=
EXTT8=
EXTT9=
EXTT10=
EXTT11=
EXTT12=
EXTT13=
EXTT14=
EXTT15=
PLAYORDER=
